<svg width="154" height="139" viewBox="0 0 154 139" fill="none" xmlns="http://www.w3.org/2000/svg">
<path fill-rule="evenodd" clip-rule="evenodd" d="M14.9805 0H139.169H140.218V0.0364988C147.919 0.574473 154 6.9925 154 14.8307C154 22.669 147.919 29.087 140.218 29.625V29.6615H139.169H14.9805V29.6608C14.9307 29.6612 14.8807 29.6615 14.8307 29.6615C6.63995 29.6615 0 23.0215 0 14.8308C0 6.63996 6.63995 1.70993e-05 14.8307 1.70993e-05C14.8807 1.70993e-05 14.9307 0.000264465 14.9805 0.00075804V0Z" fill="white"/>
<path fill-rule="evenodd" clip-rule="evenodd" d="M14.9805 83.8904C14.9307 83.8908 14.8807 83.8911 14.8307 83.8911C6.63995 83.8911 0 77.2511 0 69.0604C0 60.8696 6.63995 54.2296 14.8307 54.2296C14.8807 54.2296 14.9307 54.2299 14.9805 54.2304V54.2297H139.169H140.218V54.2662C147.919 54.8042 154 61.2222 154 69.0604C154 76.8987 147.919 83.3167 140.218 83.8547V83.8912H139.169H14.9805V83.8904Z" fill="white"/>
<path fill-rule="evenodd" clip-rule="evenodd" d="M14.9805 138.12C14.9307 138.12 14.8807 138.121 14.8307 138.121C6.63995 138.121 0 131.481 0 123.29C0 115.099 6.63995 108.459 14.8307 108.459C14.8807 108.459 14.9307 108.459 14.9805 108.46V108.459H139.169H140.218V108.496C147.919 109.034 154 115.452 154 123.29C154 131.128 147.919 137.546 140.218 138.084V138.121H139.169H14.9805V138.12Z" fill="white"/>
</svg>
